<svg width="16" height="16" viewBox="0 0 16 16" fill="none" xmlns="http://www.w3.org/2000/svg">
<mask id="path-1-inside-1_428_966" fill="white">
<path fill-rule="evenodd" clip-rule="evenodd" d="M10.9388 13.5859C10.9388 13.2737 11.1224 12.9934 11.3962 12.8433C13.3143 11.7916 14.6886 9.93139 14.9916 7.99639C15.0599 7.55989 14.6963 7.19971 14.2545 7.19971H1.7453C1.30347 7.19971 0.939815 7.55989 1.00818 7.99639C1.31117 9.93111 2.68502 11.791 4.60275 12.8428C4.87646 12.9929 5.06 13.2733 5.06 13.5854V13.8998C5.06 14.3416 5.41818 14.6998 5.86001 14.6998H10.1388C10.5807 14.6998 10.9388 14.3416 10.9388 13.8998V13.5859Z"/>
</mask>
<path fill-rule="evenodd" clip-rule="evenodd" d="M10.9388 13.5859C10.9388 13.2737 11.1224 12.9934 11.3962 12.8433C13.3143 11.7916 14.6886 9.93139 14.9916 7.99639C15.0599 7.55989 14.6963 7.19971 14.2545 7.19971H1.7453C1.30347 7.19971 0.939815 7.55989 1.00818 7.99639C1.31117 9.93111 2.68502 11.791 4.60275 12.8428C4.87646 12.9929 5.06 13.2733 5.06 13.5854V13.8998C5.06 14.3416 5.41818 14.6998 5.86001 14.6998H10.1388C10.5807 14.6998 10.9388 14.3416 10.9388 13.8998V13.5859Z" fill="#FF5E00"/>
<path d="M4.60275 12.8428L3.88143 14.158L4.60275 12.8428ZM12.1173 14.1586C14.3924 12.9111 16.09 10.6774 16.4735 8.22848L13.5097 7.76431C13.2871 9.1854 12.2363 10.672 10.675 11.528L12.1173 14.1586ZM14.2545 5.69971H1.7453V8.69971H14.2545V5.69971ZM-0.473762 8.22848C-0.0902997 10.677 1.60685 12.9105 3.88143 14.158L5.32407 11.5277C3.76319 10.6716 2.71263 9.18518 2.49011 7.76431L-0.473762 8.22848ZM6.56 13.8998V13.5854H3.56V13.8998H6.56ZM10.1388 13.1998H5.86001V16.1998H10.1388V13.1998ZM9.43882 13.5859V13.8998H12.4388V13.5859H9.43882ZM10.1388 16.1998C11.4091 16.1998 12.4388 15.1701 12.4388 13.8998H9.43882C9.43882 13.5132 9.75222 13.1998 10.1388 13.1998V16.1998ZM3.56 13.8998C3.56 15.1701 4.58975 16.1998 5.86001 16.1998V13.1998C6.2466 13.1998 6.56 13.5132 6.56 13.8998H3.56ZM3.88143 14.158C3.72711 14.0734 3.56 13.878 3.56 13.5854H6.56C6.56 12.6686 6.0258 11.9125 5.32407 11.5277L3.88143 14.158ZM1.7453 5.69971C0.54865 5.69971 -0.709184 6.72521 -0.473762 8.22848L2.49011 7.76431C2.53348 8.04121 2.43084 8.30151 2.27209 8.46835C2.12363 8.62438 1.93088 8.69971 1.7453 8.69971V5.69971ZM16.4735 8.22848C16.7089 6.72522 15.4511 5.69971 14.2545 5.69971V8.69971C14.0689 8.69971 13.8761 8.62438 13.7277 8.46835C13.5689 8.30151 13.4663 8.04121 13.5097 7.76431L16.4735 8.22848ZM10.675 11.528C9.97316 11.9128 9.43882 12.6689 9.43882 13.5859H12.4388C12.4388 13.8785 12.2717 14.0739 12.1173 14.1586L10.675 11.528Z" fill="#FF5E00" mask="url(#path-1-inside-1_428_966)"/>
<path d="M3 2H14" stroke="#FF5E00" stroke-width="1.2" stroke-linecap="round"/>
<path d="M3.00195 4H4.5M11 4H14" stroke="#FF5E00" stroke-width="1.2" stroke-linecap="round"/>
<path d="M6.59961 4V8.5M8.6999 4V6" stroke="#FF5E00" stroke-width="1.2" stroke-linecap="round"/>
</svg>
