<svg width="25" height="24" viewBox="0 0 25 24" fill="none" xmlns="http://www.w3.org/2000/svg">
<mask id="path-1-inside-1_1067_1768" fill="white">
<path fill-rule="evenodd" clip-rule="evenodd" d="M16.8898 19.2481C16.8898 18.8618 17.1145 18.5136 17.4528 18.3271C20.2893 16.7632 22.3102 13.927 22.692 10.9972C22.7633 10.4495 22.3097 10 21.7574 10H3.63875C3.08646 10 2.63283 10.4495 2.70419 10.9972C3.086 13.9272 5.10713 16.7636 7.94396 18.3274C8.28229 18.5139 8.50702 18.8621 8.50702 19.2484V20C8.50702 20.5523 8.95474 21 9.50702 21H15.8898C16.4421 21 16.8898 20.5523 16.8898 20V19.2481Z"/>
</mask>
<path fill-rule="evenodd" clip-rule="evenodd" d="M16.8898 19.2481C16.8898 18.8618 17.1145 18.5136 17.4528 18.3271C20.2893 16.7632 22.3102 13.927 22.692 10.9972C22.7633 10.4495 22.3097 10 21.7574 10H3.63875C3.08646 10 2.63283 10.4495 2.70419 10.9972C3.086 13.9272 5.10713 16.7636 7.94396 18.3274C8.28229 18.5139 8.50702 18.8621 8.50702 19.2484V20C8.50702 20.5523 8.95474 21 9.50702 21H15.8898C16.4421 21 16.8898 20.5523 16.8898 20V19.2481Z" fill="#FF5E00"/>
<path d="M7.94396 18.3274L7.21982 19.6411L7.94396 18.3274ZM22.692 10.9972L21.2045 10.8034L22.692 10.9972ZM18.177 19.6407C21.3877 17.8705 23.7297 14.6419 24.1794 11.191L21.2045 10.8034C20.8907 13.2121 19.1909 15.656 16.7286 17.0135L18.177 19.6407ZM21.7574 8.5H3.63875V11.5H21.7574V8.5ZM1.21677 11.191C1.66647 14.6421 4.00875 17.871 7.21982 19.6411L8.66809 17.0138C6.20551 15.6563 4.50552 13.2123 4.19162 10.8034L1.21677 11.191ZM10.007 20V19.2484H7.00702V20H10.007ZM15.8898 19.5H9.50702V22.5H15.8898V19.5ZM15.3898 19.2481V20H18.3898V19.2481H15.3898ZM15.8898 22.5C17.2705 22.5 18.3898 21.3808 18.3898 20H15.3898C15.3898 19.7239 15.6137 19.5 15.8898 19.5V22.5ZM7.00702 20C7.00702 21.3808 8.12631 22.5 9.50702 22.5V19.5C9.78317 19.5 10.007 19.7239 10.007 20H7.00702ZM7.21982 19.6411C7.12518 19.5889 7.00702 19.4588 7.00702 19.2484H10.007C10.007 18.2654 9.4394 17.439 8.66809 17.0138L7.21982 19.6411ZM3.63875 8.5C2.31741 8.5 1.01147 9.6155 1.21677 11.191L4.19162 10.8034C4.21885 11.0124 4.13832 11.2084 4.01994 11.3318C3.90985 11.4465 3.77011 11.5 3.63875 11.5V8.5ZM24.1794 11.191C24.3847 9.61551 23.0787 8.5 21.7574 8.5V11.5C21.626 11.5 21.4863 11.4465 21.3762 11.3318C21.2578 11.2084 21.1773 11.0124 21.2045 10.8034L24.1794 11.191ZM16.7286 17.0135C15.9573 17.4387 15.3898 18.2651 15.3898 19.2481H18.3898C18.3898 19.4584 18.2717 19.5885 18.177 19.6407L16.7286 17.0135Z" fill="#FF5E00" mask="url(#path-1-inside-1_1067_1768)"/>
<path d="M4.69824 4H21.1982" stroke="#FF5E00" stroke-width="1.5" stroke-linecap="round"/>
<path d="M4.69824 6.5H6.69824M15.1982 6.5H21.1982" stroke="#FF5E00" stroke-width="1.5" stroke-linecap="round"/>
<path d="M9.19824 6.5V11M12.1982 6.5V8.5" stroke="#FF5E00" stroke-width="1.5" stroke-linecap="round"/>
</svg>
